<?xml version="1.0" encoding="UTF-8" standalone="no"?><!DOCTYPE svg PUBLIC "-//W3C//DTD SVG 1.1//EN" "http://www.w3.org/Graphics/SVG/1.1/DTD/svg11.dtd"><svg width="100%" height="100%" viewBox="0 0 1280 800" version="1.1" xmlns="http://www.w3.org/2000/svg" xmlns:xlink="http://www.w3.org/1999/xlink" xml:space="preserve" xmlns:serif="http://www.serif.com/" style="fill-rule:evenodd;clip-rule:evenodd;stroke-linejoin:round;stroke-miterlimit:1.41421;"><g><path d="M169.299,310.661l-58.319,-107.109l-22.108,0l0,107.109l-64.037,0l0,-269.869l102.916,0c12.96,0 25.602,1.335 37.927,4.003c12.324,2.668 23.378,7.178 33.162,13.531c9.783,6.353 17.597,14.739 23.442,25.158c5.844,10.418 8.767,23.378 8.767,38.879c0,18.296 -4.956,33.67 -14.866,46.121c-9.911,12.452 -23.633,21.346 -41.166,26.682l70.516,115.495l-76.234,0Zm-2.668,-187.155c0,-6.352 -1.334,-11.498 -4.003,-15.437c-2.668,-3.939 -6.098,-6.988 -10.291,-9.148c-4.193,-2.16 -8.894,-3.621 -14.103,-4.384c-5.21,-0.762 -10.228,-1.143 -15.057,-1.143l-34.686,0l0,62.893l30.875,0c5.336,0 10.799,-0.445 16.39,-1.334c5.59,-0.889 10.673,-2.478 15.247,-4.765c4.574,-2.287 8.322,-5.59 11.244,-9.91c2.923,-4.32 4.384,-9.911 4.384,-16.772Z" style="fill-rule:nonzero;"/><path d="M277.551,310.661l0,-269.869l181.437,0l0,55.27l-118.544,0l0,50.696l758.741,-1.751l1.214,105.177l-47.702,0.261l0.329,-56.1l-712.582,4.633l0,56.032l125.405,0l0,55.651l-188.298,0Z" style="fill:#0061ff;fill-rule:nonzero;"/><rect x="508.922" y="40.792" width="65.561" height="269.869" style="fill-rule:nonzero;"/><path d="M880.567,175.727c0,23.632 -2.863,43.263 -11.63,60.415c-8.767,17.153 -20.329,31.256 -34.687,42.31c-14.357,11.054 -30.557,19.186 -48.599,24.395c-18.042,5.209 -36.338,7.814 -54.888,7.814l-100.629,0l0,-269.869l97.579,0c19.059,0 37.863,2.224 56.413,6.671c18.551,4.447 35.068,11.816 49.553,22.108c14.484,10.291 26.173,24.077 35.067,41.357c8.894,17.279 11.821,39.387 11.821,64.799Zm-66.328,-0.763c0,-15.246 -2.478,-27.889 -7.433,-37.926c-4.955,-10.038 -11.562,-18.042 -19.821,-24.014c-8.258,-5.971 -17.661,-10.228 -28.206,-12.769c-10.546,-2.541 -21.409,-3.812 -32.59,-3.812l-32.4,0l0,157.805l30.875,0c11.689,0 22.934,-1.334 33.734,-4.003c10.799,-2.668 20.329,-7.051 28.587,-13.15c8.259,-6.099 14.866,-14.23 19.821,-24.395c4.955,-10.164 7.433,-22.743 7.433,-37.736Z" style="fill-rule:nonzero;"/></g><g><path d="M58.109,588.691c2.663,2.179 7.14,4.539 13.433,7.08c6.293,2.541 12.949,3.691 19.968,3.449c7.987,0.242 15.732,-0.363 23.235,-1.815c7.503,-1.453 14.28,-3.994 20.331,-7.624c6.051,-3.631 10.891,-8.411 14.522,-14.341c3.63,-5.93 5.446,-13.372 5.446,-22.327c0,-9.924 -2.36,-18.274 -7.08,-25.051c-4.72,-6.777 -10.589,-12.767 -17.608,-17.971c-7.019,-5.204 -14.582,-10.165 -22.691,-14.885c-8.108,-4.72 -15.671,-9.984 -22.69,-15.793c-7.019,-5.808 -12.888,-12.646 -17.608,-20.512c-4.72,-7.866 -7.08,-17.608 -7.08,-29.225c0,-11.134 1.997,-21.239 5.991,-30.315c3.993,-9.076 9.923,-16.882 17.789,-23.417c7.866,-6.535 17.487,-11.617 28.863,-15.248c11.375,-3.63 24.324,-5.446 38.846,-5.446c14.764,0 27.955,1.15 39.572,3.449c11.618,2.3 20.694,5.144 27.229,8.532c-0.968,4.115 -2.36,8.895 -4.175,14.341c-1.815,5.445 -3.691,11.073 -5.627,16.881c-1.936,5.809 -3.994,11.436 -6.172,16.882c-2.178,5.446 -4.115,10.226 -5.809,14.341l-9.439,0l-4.357,-49.738c-4.114,-1.936 -9.378,-3.389 -15.792,-4.357c-6.414,-0.968 -13.373,-1.452 -20.876,-1.452c-7.261,0 -14.098,0.847 -20.512,2.541c-6.414,1.695 -11.981,4.296 -16.7,7.806c-4.72,3.509 -8.411,7.926 -11.073,13.251c-2.663,5.325 -3.994,11.618 -3.994,18.879c0,9.681 2.36,17.729 7.08,24.143c4.719,6.414 10.589,12.162 17.608,17.245c7.018,5.082 14.582,9.983 22.69,14.703c8.108,4.72 15.672,10.105 22.691,16.156c7.019,6.051 12.888,13.372 17.608,21.964c4.719,8.592 7.079,19.181 7.079,31.767c0,11.376 -2.239,21.662 -6.716,30.859c-4.478,9.198 -10.892,17.124 -19.242,23.78c-8.35,6.656 -18.636,11.799 -30.859,15.43c-12.223,3.63 -26.079,5.446 -41.569,5.446c-7.745,0 -15.188,-0.485 -22.328,-1.453c-7.14,-0.968 -13.675,-2.299 -19.605,-3.993c-5.929,-1.694 -11.194,-3.57 -15.792,-5.628c-4.599,-2.057 -8.108,-4.054 -10.529,-5.99c0.968,-4.356 2.36,-9.5 4.175,-15.429c1.816,-5.93 3.812,-11.921 5.991,-17.971c2.178,-6.051 4.356,-11.921 6.535,-17.608c2.178,-5.688 4.235,-10.589 6.171,-14.704l9.44,0l3.63,53.368Z" style="fill-rule:nonzero;"/><path d="M229.469,512.814c0,-22.025 3.328,-42.598 9.984,-61.718c6.656,-19.121 16.276,-35.761 28.862,-49.92c12.586,-14.159 27.713,-25.353 45.381,-33.582c17.669,-8.229 37.636,-12.344 59.904,-12.344c17.668,0 32.553,2.905 44.655,8.714c12.101,5.808 21.843,13.432 29.225,22.872c7.382,9.439 12.707,20.27 15.974,32.493c3.268,12.222 4.902,24.869 4.902,37.938c0,19.363 -2.723,38.665 -8.169,57.907c-5.446,19.242 -13.856,36.486 -25.232,51.734c-11.376,15.249 -25.716,27.592 -43.021,37.032c-17.306,9.439 -37.818,14.159 -61.537,14.159c-17.427,0 -32.493,-2.844 -45.2,-8.532c-12.707,-5.688 -23.175,-13.312 -31.404,-22.872c-8.229,-9.561 -14.34,-20.694 -18.334,-33.401c-3.993,-12.707 -5.99,-26.2 -5.99,-40.48Zm38.846,0.363c0,13.312 1.755,25.293 5.264,35.942c3.51,10.649 8.35,19.726 14.522,27.229c6.172,7.503 13.433,13.251 21.783,17.245c8.35,3.993 17.487,5.869 27.411,5.627c17.668,0.242 32.371,-4.054 44.11,-12.888c11.739,-8.835 21.178,-20.21 28.318,-34.127c7.14,-13.917 12.223,-29.286 15.248,-46.107c3.026,-16.822 4.538,-33.219 4.538,-49.194c0,-12.343 -1.391,-23.598 -4.175,-33.763c-2.783,-10.166 -6.958,-18.879 -12.525,-26.14c-5.567,-7.261 -12.404,-12.888 -20.512,-16.882c-8.109,-3.993 -17.487,-5.99 -28.137,-5.99c-16.7,0 -31.101,4.357 -43.203,13.07c-12.101,8.713 -22.085,19.847 -29.951,33.4c-7.866,13.554 -13.615,28.56 -17.245,45.019c-3.631,16.458 -5.446,32.311 -5.446,47.559Z" style="fill-rule:nonzero;"/><path d="M511.195,359.607l92.215,0l-2.178,10.528c-9.439,4.115 -19.242,7.14 -29.407,9.077l-30.859,144.13c-2.663,12.828 -3.389,23.78 -2.179,32.857c1.21,9.076 4.115,16.518 8.713,22.327c4.599,5.809 10.65,10.044 18.153,12.707c7.503,2.662 16.216,3.993 26.14,3.993c19.604,0 35.276,-5.445 47.014,-16.337c11.739,-10.891 20.029,-28.076 24.869,-51.553l30.86,-144.857c-10.65,-3.63 -19.363,-7.745 -26.14,-12.344l2.178,-10.528l77.693,0l-2.541,10.528c-4.115,2.663 -8.956,5.083 -14.522,7.261c-5.567,2.179 -11.013,3.873 -16.338,5.083l-30.859,145.583c-6.777,31.706 -18.697,54.458 -35.76,68.254c-17.064,13.795 -39.028,20.693 -65.894,20.693c-15.974,0 -29.467,-2.299 -40.48,-6.898c-11.012,-4.598 -19.665,-10.952 -25.958,-19.06c-6.293,-8.108 -10.286,-17.789 -11.981,-29.044c-1.694,-11.254 -1.089,-23.416 1.816,-36.486l31.222,-146.309c-4.841,-0.968 -9.802,-2.239 -14.885,-3.812c-5.083,-1.574 -9.439,-3.328 -13.07,-5.265l2.178,-10.528Z" style="fill-rule:nonzero;"/><path d="M857.908,613.742l-102.017,0l1.815,-10.529c5.809,-2.178 11.557,-3.933 17.245,-5.264c5.688,-1.331 11.92,-2.481 18.697,-3.449l45.745,-216.014l-55.547,0l-30.133,51.916l-9.44,0c0.242,-4.841 0.787,-10.347 1.634,-16.519c0.847,-6.172 1.755,-12.465 2.723,-18.879c0.968,-6.414 1.997,-12.706 3.086,-18.878c1.089,-6.172 2.239,-11.678 3.449,-16.519l210.569,0c-0.968,4.841 -2.178,10.286 -3.631,16.337c-1.452,6.051 -3.025,12.283 -4.719,18.697c-1.694,6.414 -3.449,12.707 -5.264,18.879c-1.816,6.172 -3.57,11.799 -5.265,16.882l-9.439,0l-7.624,-51.916l-55.547,0l-45.744,216.014c5.809,1.21 11.315,2.421 16.519,3.631c5.204,1.21 10.105,2.904 14.703,5.082l-1.815,10.529Z" style="fill-rule:nonzero;"/><path d="M1018.38,613.742l-91.851,0l1.815,-10.529c5.324,-2.42 10.649,-4.296 15.974,-5.627c5.325,-1.331 10.649,-2.36 15.974,-3.086l45.381,-215.288c-10.891,-2.179 -20.209,-5.204 -27.954,-9.077l2.541,-10.528l91.852,0l-2.179,10.528c-4.114,2.179 -8.834,3.994 -14.159,5.446c-5.324,1.452 -10.407,2.663 -15.248,3.631l-19.968,94.756l113.998,0l20.331,-94.756c-4.841,-1.21 -9.379,-2.481 -13.614,-3.812c-4.236,-1.332 -8.29,-3.086 -12.163,-5.265l2.542,-10.528l91.851,0l-2.178,10.528c-4.841,2.421 -9.984,4.297 -15.43,5.628c-5.445,1.331 -10.831,2.481 -16.155,3.449l-45.745,215.288c10.892,1.937 20.089,4.841 27.592,8.713l-1.815,10.529l-91.852,0l1.816,-10.529c4.598,-1.936 9.378,-3.63 14.34,-5.082c4.962,-1.452 9.984,-2.663 15.067,-3.631l21.42,-101.654l-114.361,0l-21.057,101.654c4.357,0.968 8.713,2.179 13.07,3.631c4.356,1.452 8.35,3.146 11.98,5.082l-1.815,10.529Z" style="fill-rule:nonzero;"/></g><text x="17.465px" y="703.835px" style="font-family:'AvenirNext-Heavy', 'Avenir Next', sans-serif;font-weight:900;font-size:71.242px;">F<tspan x="55.865px 103.098px " y="703.835px 703.835px ">ul</tspan>l-<tspan x="174.91px 218.439px 248.432px " y="703.835px 703.835px 703.835px ">Sta</tspan>ck Developer F<tspan x="838.386px 885.691px " y="703.835px 703.835px ">oc</tspan>used on</text><text x="17.335px" y="779.209px" style="font-family:'AvenirNext-Heavy', 'Avenir Next', sans-serif;font-weight:900;font-size:73.211px;">Be<tspan x="113.754px 157.021px " y="779.209px 779.209px ">au</tspan>tiful Design and Cle<tspan x="951.211px 994.478px " y="779.209px 779.209px ">an</tspan> C<tspan x="1111.62px 1160.23px " y="779.209px 779.209px ">od</tspan>e.</text><path d="M1074.96,310.661l-64.805,-91.224l129.713,0.074l-64.908,91.15Z" style="fill:#0061ff;"/><path d="M892.587,145.503l-87.025,0.214l-0.029,50.132l87.04,-0.475l0.014,-49.871Z" style="fill:#0061ff;"/></svg>