<?xml version="1.0" encoding="UTF-8" standalone="no"?><!DOCTYPE svg PUBLIC "-//W3C//DTD SVG 1.1//EN" "http://www.w3.org/Graphics/SVG/1.1/DTD/svg11.dtd"><svg width="100%" height="100%" viewBox="0 0 100 100" version="1.1" xmlns="http://www.w3.org/2000/svg" xmlns:xlink="http://www.w3.org/1999/xlink" xml:space="preserve" xmlns:serif="http://www.serif.com/" style="fill-rule:evenodd;clip-rule:evenodd;stroke-linecap:round;stroke-linejoin:round;stroke-miterlimit:1.5;"><rect x="0" y="0" width="100" height="100" style="fill:#0061ff;"/><path d="M75,26.081c0,-4 -3.248,-7.248 -7.248,-7.248l-35.504,0c-4,0 -7.248,3.248 -7.248,7.248l0,47.838c0,4 3.248,7.248 7.248,7.248l35.504,0c4,0 7.248,-3.248 7.248,-7.248l0,-47.838Z" style="fill:none;stroke:#fff;stroke-width:1.5px;"/><ellipse cx="61.332" cy="40.062" rx="0.485" ry="0.492" style="fill:#fff;"/><g><circle cx="61.363" cy="31.182" r="7.115" style="fill:none;stroke:#fff;stroke-width:1.5px;"/><path d="M67.525,51.028c0.624,-1.29 0.953,-2.754 0.953,-4.244c0,-4.684 -3.188,-8.487 -7.115,-8.487c-3.927,0 -7.116,3.803 -7.116,8.487c0,1.49 0.329,2.954 0.954,4.244l12.324,0Z" style="fill:none;stroke:#fff;stroke-width:1.5px;"/><path d="M61.332,40.062l0.485,-0.983l-0.97,0l0.485,0.983Z" style="fill:none;stroke:#fff;stroke-width:1.5px;"/><path d="M61.332,41.209l0.453,5.934l-0.906,0l0.453,-5.934Z" style="fill:none;stroke:#fff;stroke-width:1.5px;"/></g><path d="M44.724,52.245c0,-0.022 -0.017,-0.04 -0.04,-0.04l-13.472,0c-0.023,0 -0.04,0.018 -0.04,0.04l0,0.08c0,0.022 0.017,0.04 0.04,0.04l13.472,0c0.023,0 0.04,-0.018 0.04,-0.04l0,-0.08Z" style="fill:#fff;stroke:#fff;stroke-width:1.5px;"/><path d="M44.724,46.647c0,-0.022 -0.017,-0.04 -0.04,-0.04l-13.472,0c-0.023,0 -0.04,0.018 -0.04,0.04l0,0.08c0,0.022 0.017,0.04 0.04,0.04l13.472,0c0.023,0 0.04,-0.018 0.04,-0.04l0,-0.08Z" style="fill:#fff;stroke:#fff;stroke-width:1.5px;"/><path d="M68.828,69.102c0,-0.022 -0.017,-0.04 -0.04,-0.04l-37.576,0c-0.023,0 -0.04,0.018 -0.04,0.04l0,0.08c0,0.022 0.017,0.04 0.04,0.04l37.576,0c0.023,0 0.04,-0.018 0.04,-0.04l0,-0.08Z" style="fill:#fff;stroke:#fff;stroke-width:1.5px;"/><path d="M68.828,63.421c0,-0.022 -0.017,-0.04 -0.04,-0.04l-37.576,0c-0.023,0 -0.04,0.018 -0.04,0.04l0,0.08c0,0.022 0.017,0.04 0.04,0.04l37.576,0c0.023,0 0.04,-0.018 0.04,-0.04l0,-0.08Z" style="fill:#fff;stroke:#fff;stroke-width:1.5px;"/><path d="M68.828,58.102c0,-0.022 -0.017,-0.04 -0.04,-0.04l-37.576,0c-0.023,0 -0.04,0.018 -0.04,0.04l0,0.08c0,0.022 0.017,0.04 0.04,0.04l37.576,0c0.023,0 0.04,-0.018 0.04,-0.04l0,-0.08Z" style="fill:#fff;stroke:#fff;stroke-width:1.5px;"/><text x="28.832px" y="39.347px" style="font-family:'HiraMaruPro-W4', 'Hiragino Maru Gothic Pro', sans-serif;font-size:10.172px;fill:#fff;">Reid</text></svg>