<?xml version="1.0" encoding="UTF-8" standalone="no"?><!DOCTYPE svg PUBLIC "-//W3C//DTD SVG 1.1//EN" "http://www.w3.org/Graphics/SVG/1.1/DTD/svg11.dtd"><svg width="100%" height="100%" viewBox="0 0 100 100" version="1.1" xmlns="http://www.w3.org/2000/svg" xmlns:xlink="http://www.w3.org/1999/xlink" xml:space="preserve" xmlns:serif="http://www.serif.com/" style="fill-rule:evenodd;clip-rule:evenodd;stroke-linecap:round;stroke-linejoin:round;stroke-miterlimit:1.5;"><path d="M86.892,14.703c0,-5.903 -4.792,-10.696 -10.696,-10.696l-52.392,0c-5.904,0 -10.696,4.793 -10.696,10.696l0,70.594c0,5.903 4.792,10.696 10.696,10.696l52.392,0c5.904,0 10.696,-4.793 10.696,-10.696l0,-70.594Z" style="fill:none;stroke:#000;stroke-width:3.5px;"/><g><circle cx="66.768" cy="22.23" r="10.5" style="fill:none;stroke:#000;stroke-width:3.5px;"/><path d="M75.861,51.517c0.922,-1.904 1.407,-4.064 1.407,-6.263c0,-6.912 -4.705,-12.524 -10.5,-12.524c-5.795,0 -10.5,5.612 -10.5,12.524c0,2.199 0.485,4.359 1.407,6.263l18.186,0Z" style="fill:none;stroke:#000;stroke-width:3.5px;"/><path d="M66.768,37.512l1.422,-2.903l-2.844,0l1.422,2.903Z" style="fill:none;stroke:#000;stroke-width:3.5px;"/><path d="M66.768,38.911l1.329,6.425l-2.658,0l1.329,-6.425Z" style="fill:none;stroke:#000;stroke-width:3.5px;"/></g><path d="M42.215,53.313c0,-0.033 -0.027,-0.059 -0.059,-0.059l-19.882,0c-0.033,0 -0.059,0.026 -0.059,0.059l0,0.118c0,0.033 0.026,0.059 0.059,0.059l19.882,0c0.032,0 0.059,-0.026 0.059,-0.059l0,-0.118Z" style="fill:none;stroke:#000;stroke-width:2px;"/><path d="M42.215,45.052c0,-0.033 -0.027,-0.059 -0.059,-0.059l-19.882,0c-0.033,0 -0.059,0.026 -0.059,0.059l0,0.118c0,0.033 0.026,0.059 0.059,0.059l19.882,0c0.032,0 0.059,-0.026 0.059,-0.059l0,-0.118Z" style="fill:none;stroke:#000;stroke-width:2px;"/><path d="M77.785,78.189c0,-0.032 -0.026,-0.059 -0.059,-0.059l-55.452,0c-0.033,0 -0.059,0.027 -0.059,0.059l0,0.118c0,0.033 0.026,0.059 0.059,0.059l55.452,0c0.033,0 0.059,-0.026 0.059,-0.059l0,-0.118Z" style="fill:none;stroke:#000;stroke-width:2px;"/><path d="M77.785,69.805c0,-0.033 -0.026,-0.059 -0.059,-0.059l-55.452,0c-0.033,0 -0.059,0.026 -0.059,0.059l0,0.118c0,0.032 0.026,0.059 0.059,0.059l55.452,0c0.033,0 0.059,-0.027 0.059,-0.059l0,-0.118Z" style="fill:none;stroke:#000;stroke-width:2px;"/><path d="M77.785,61.957c0,-0.033 -0.026,-0.06 -0.059,-0.06l-55.452,0c-0.033,0 -0.059,0.027 -0.059,0.06l0,0.118c0,0.032 0.026,0.059 0.059,0.059l55.452,0c0.033,0 0.059,-0.027 0.059,-0.059l0,-0.118Z" style="fill:none;stroke:#000;stroke-width:2px;"/><text x="17.788px" y="31.267px" style="font-family:'ComicSansMS-Bold', 'Comic Sans MS', cursive;font-weight:700;font-size:15.874px;">Reid</text></svg>